<svg width="240" height="135" viewBox="0 0 240 135" fill="none" xmlns="http://www.w3.org/2000/svg">
<path d="M239.996 115.477V58.823C240.025 47.228 236.622 35.8871 230.222 26.2472C223.821 16.6073 214.714 9.10538 204.06 4.69842C193.407 0.291461 181.691 -0.820729 170.407 1.50374C159.123 3.82821 148.783 9.48396 140.706 17.7495C135.324 12.2293 128.903 7.8445 121.818 4.8512C114.734 1.85791 107.128 0.316211 99.4446 0.316211C91.7614 0.316211 84.1553 1.85791 77.0708 4.8512C69.9863 7.8445 63.5655 12.2293 58.1837 17.7495C52.7711 12.2249 46.3238 7.83624 39.2149 4.83745C32.1059 1.83866 24.4767 0.289369 16.7689 0.279297C12.3215 0.279297 8.05626 2.05789 4.91147 5.22381C1.76668 8.38974 0 12.6836 0 17.1609C0 21.6382 1.76668 25.9321 4.91147 29.0981C8.05626 32.264 12.3215 34.0426 16.7689 34.0426C23.2972 34.0426 29.5582 36.6534 34.1744 41.3006C38.7906 45.9478 41.3839 52.2508 41.3839 58.823V115.477C41.3839 116.128 41.3839 116.747 41.3839 117.398C41.3839 119.615 41.8177 121.81 42.6604 123.858C43.5031 125.906 44.7384 127.767 46.2955 129.335C47.8526 130.902 49.7012 132.146 51.7357 132.994C53.7702 133.843 55.9508 134.279 58.1529 134.279H58.7068H59.8144C63.9492 133.921 67.7979 132.006 70.5924 128.917C73.3869 125.828 74.922 121.792 74.8912 117.614V58.823C74.8912 58.6371 74.8912 58.4822 74.8912 58.2964C74.8912 58.1105 74.8912 58.5752 74.8912 58.7301C75.3369 52.6117 78.0211 46.8772 82.4246 42.6364C86.828 38.3956 92.6375 35.9499 98.7288 35.7726C104.82 35.5953 110.76 37.699 115.4 41.6766C120.039 45.6542 123.048 51.2229 123.844 57.3052C123.844 57.8008 123.844 58.3274 123.844 58.823V117.398C123.822 121.32 125.173 125.126 127.66 128.146C129.864 130.818 132.832 132.741 136.16 133.656C139.488 134.57 143.015 134.431 146.262 133.256C149.509 132.082 152.318 129.93 154.307 127.093C156.297 124.256 157.37 120.871 157.382 117.398V58.823C157.087 55.4009 157.502 51.9545 158.6 48.7024C159.698 45.4502 161.456 42.4635 163.762 39.9317C166.068 37.4 168.872 35.3785 171.995 33.9956C175.118 32.6127 178.493 31.8986 181.905 31.8986C185.317 31.8986 188.692 32.6127 191.815 33.9956C194.938 35.3785 197.742 37.4 200.048 39.9317C202.354 42.4635 204.111 45.4502 205.21 48.7024C206.308 51.9545 206.723 55.4009 206.428 58.823V117.398C206.436 121.872 208.205 126.162 211.348 129.326C214.491 132.49 218.752 134.271 223.197 134.279C227.644 134.279 231.909 132.501 235.054 129.335C238.199 126.169 239.966 121.875 239.966 117.398C240.011 116.758 240.011 116.116 239.966 115.477" fill="white"/>
</svg>
